<svg id="Layer_1" data-name="Layer 1" xmlns="http://www.w3.org/2000/svg" viewBox="0 0 320 320">
  <g>
    <path d="M181.25,88.57a73,73,0,0,1,36.57,31.58l.93,0h0c2.5-.09,4.84-.23,7-.42h0a65,65,0,0,0,14.15-2.52h0l.2-.06.15,0h0l.25-.08.08,0,.06,0A20.3,20.3,0,0,0,246,114.3a65.41,65.41,0,0,1-13.32-1.06,57.64,57.64,0,1,0-112.18-21.5,73.11,73.11,0,0,1,60.77-3.17" style="fill: #fff;fill-rule: evenodd"/>
    <path d="M188.42,150.58a57.86,57.86,0,0,0,32.66-18,26,26,0,0,1-7.25-.2c-7.65-1.49-2.37,0-6.08-.14-10.32-.25-14.38-3-16.61,7.6-.76,3.65-1.7,7.2-2.72,10.71M143.29,139.5a57.55,57.55,0,0,0,8.07,5.19c.61-3.1,1.26-6.07-.92-8.92C149.1,136.18,145.32,138.47,143.29,139.5Zm75.46-19.38a73.29,73.29,0,0,0-97.89-29.36A57.86,57.86,0,0,0,133.54,130c2.23-1.77,2-2.42,4.65-4.6.8-.68,1.17-.63,1.9-1.42,1.65-1.78,2.62-4.07,4.41-5.81,2.22-2.15,11.63-5.79,14.74-6-1.3-2.34-1.32-5.08-1.79-8.52-.5-3.7-1.63-3.59-.43-7.78a19.34,19.34,0,0,1,3.62-6.1c4.2-4,10.49-4.65,15-.59,2.81,2.54,2.76,6.29,2.37,10.09-.26,2.64.3,2,.43,3.88.17,2.6-2.62,3.92-1.06,6.44,1.16,1.87,3.85,2.48,6.25,2.62,2,.12,6.81-.13,8.35.18s1.91.83,3.35,1,2.86-.25,4.17.1c1.82.48,4,2.26,5.89,3C212,119.07,214.58,120.33,218.75,120.12Z" style="fill: #fff;fill-opacity: 0.6;fill-rule: evenodd"/>
    <path d="M151.57,143.62a57.42,57.42,0,0,1-7.29-4.64,10.22,10.22,0,0,1-2.22,1c-3.34.21-2.12-1.69-6.25,1.07-1.27.85-1.13,1-2.09,2-2.22,2.27-5.39,2.89-8.25,4.35-4.08,2.07-11.07,7.83-13.84,11.05-2.93,3.42-8,4-12.21,4-.43-10.59,4.2-9.48,9.22-11.63.28-.12,18.86-16.43,22.08-18.9a28.1,28.1,0,0,0,3.53-2.57,57.78,57.78,0,0,1-13-39.59,73.26,73.26,0,0,0-33.43,94A57.67,57.67,0,0,1,138.6,171c.29-.35.6-.7.92-1.06a23.7,23.7,0,0,1,3-2.76c4.09-3.23,3.64-5.78,5.64-10.52,1.33-3.14,2.51-3.82,2.65-8.12a31.63,31.63,0,0,1,.73-4.9m68.94-11a57.89,57.89,0,0,1-31.81,17c-1.88,6.59-4,13-5.91,19.68-2.11,7.57-2.42,4.58-.12,12.11,1.31,4.26,1,16.88.39,21.05a30.83,30.83,0,0,1-1.72,5.85c-.19.57-.36,1.17-.53,1.79a57.61,57.61,0,0,1,2.4,12.33,73.27,73.27,0,0,0,41.58-90.3C223.38,132.36,221.94,132.55,220.51,132.66Z" style="fill: #fff;fill-rule: evenodd"/>
    <path d="M122.28,219.1c2,1,4.13,2,6.29,2.83a73.1,73.1,0,0,0,24.1,5.09,15.81,15.81,0,0,1,4.1-3.57c1.75-.85,3.16-1.11,4-3.08a18.5,18.5,0,0,0,.45-5.79c-.26-4,.87-5.11-4-4.7a26.64,26.64,0,0,1-4.54-.12c-.13-3.07-.37-2.28-.78-4.56L150,207.05l-5.43-1.31c-1,4.72-8.31,14.53-13.89,14.88-2.32.15-4.85-.72-7-1.25-.47-.12-.93-.2-1.39-.27m17.09-49a57.67,57.67,0,0,0-51.16,12.69A73.3,73.3,0,0,0,101.15,203c2.36-1.07,4.69-1.19,6.62,1.47.4.54.17,1.16,1,1.11,6.12-.39,9.78-5.42,17.22-1.09a24.54,24.54,0,0,1,.59-3.74c-1.06-.18-2.07-.22-2.16-1.51-.12-1.94,2.21-6.89,3.3-8.33C133.59,183.06,131,179.46,139.37,170.09Zm44.23,51.36a58.1,58.1,0,0,0-2.46-12.51c-.48,1.58-.85,3.32-1.46,4.88-.44,1.12-.94,1.59-1.41,2.63-1.34,3-.25,4.59-3.47,7.4-.37.32-.7.61-1,.89A74.69,74.69,0,0,0,183.6,221.45Z" style="fill: #fff;fill-opacity: 0.6;fill-rule: evenodd"/>
    <path d="M184,220.47a73.5,73.5,0,0,1-8.79,3l-.39.36c-5.61,4.88-3.31,4.35-6.61,8.51a68.46,68.46,0,0,1-7.13,8c-14.87,14.27-11.45,6.63-18.47,12a11.06,11.06,0,0,1,.49,7.79c1.61.27,6.25,1,6.39,3.3.24,3.77-8.17,1.62-9.95,2.83-2.66,1.8-3.65,3.39-7.76,3.65-13.78.87-20.13-17-8.11-24.19,6.5-3.9,9.33-.85,14-.07,5.45-4.17,7-9.22,9-11.8,1-1.24,2-2.27,3.07-3.49s2.39-2.88,3.82-4.37A73,73,0,0,1,129,221l-1.58-.64c-1.28-.27-2.55-.66-3.71-.94a60.56,60.56,0,0,0-6.33-.74c-2.28-.31-4.36-.79-6.29-1.2s-3.8-1.09-6.15-.94c-7.73.49-14.67,6.7-18.51,6.94-7.68.48-9.37-7.77,7.41-15.94,2.45-1.2,5.43-3.94,8.29-4.9a73.56,73.56,0,0,1-13.5-20.78A57.65,57.65,0,1,0,184,220.47" style="fill: #fff;fill-rule: evenodd"/>
    <path d="M77,99.8A26,26,0,1,0,62.3,66,26,26,0,0,0,77,99.8" style="fill: #fff;fill-rule: evenodd"/>
    <path d="M250.51,174a29.21,29.21,0,1,0,16.43,37.9A29.21,29.21,0,0,0,250.51,174" style="fill: #fff;fill-opacity: 0.6;fill-rule: evenodd"/>
    <path d="M69.35,156.83a13.41,13.41,0,1,0,7.55,17.4,13.4,13.4,0,0,0-7.55-17.4" style="fill: #fff;fill-opacity: 0.6;fill-rule: evenodd"/>
    <path d="M232.89,269.37a11.49,11.49,0,1,1-6.47-14.91,11.5,11.5,0,0,1,6.47,14.91" style="fill: #fff;fill-rule: evenodd"/>
    <path d="M263,141.44a11.46,11.46,0,1,1-6.45-14.87A11.46,11.46,0,0,1,263,141.44" style="fill: #fff;fill-rule: evenodd"/>
  </g>
</svg>
