<svg id="Layer_1" data-name="Layer 1" xmlns="http://www.w3.org/2000/svg" viewBox="0 0 320 320">
  <g>
    <path d="M135.65,300.92a70.46,70.46,0,0,1-13.5-1.41l-.85-.19-.73-.47a73.57,73.57,0,0,1-18-18c-9.25-12.93-8.48-24.79,2.1-32.54a22.91,22.91,0,0,1,13.56-4.56l.82,0a12.47,12.47,0,0,1-6.55-5.9c-2.53,4.66-5.91,7-10.08,7a13,13,0,0,1-8.27-3.41c-5.42-4.5-11.51-13.11-10.87-22.58,0-.36,0-.72.09-1.07a12.5,12.5,0,0,1-3.45-22.87l-1.15-.33A12,12,0,0,1,74,196.69l-.33.07a30.53,30.53,0,0,1-6.26.82c-3.57,0-6.34-1.12-8.23-3.34a22.76,22.76,0,0,1-2.56-3.89,11.69,11.69,0,0,1-6.26-5.23c-4.13-7.34-4.15-14.67-.06-19.61l.44-.51.07-.09a35.33,35.33,0,0,1,4.64-5l1-.87A70.52,70.52,0,0,1,63,153.69c1.51-1.13,3.17-2.3,5-3.54a18.07,18.07,0,0,1,10.41-3.57,15.56,15.56,0,0,1,6,1.21,22.74,22.74,0,0,1,.37-6.63l.59-2.53,1-.38a25.81,25.81,0,0,1,6.94-11.17,22,22,0,0,1,15.2-6.11c0-.15.09-.31.14-.47a14.4,14.4,0,0,1-3.21-11.93,14.75,14.75,0,0,1,6.77-10.14A10.26,10.26,0,0,1,117.68,92c1.33-3.36,4-9.73,6.41-13.46,9.66-14.81,39.7-17,56.75-17,4,0,8,.14,11.49.39l.64-1.5A95.38,95.38,0,0,1,198.85,49a8.3,8.3,0,0,1,2.65-2.72,8.63,8.63,0,0,1,1.76-3.12,8.37,8.37,0,0,1,3.09-4.3l0-2.17,4.06-2.4c10.73-6.33,25.4-11.39,43.6-15a8.52,8.52,0,0,1,7.28,2c4.36,3.84,9.47,23.25,6.23,30.41-1.07,3-3.89,4.79-7.51,4.79h-.49c-1.53-.07-3.11-.11-4.85-.11-1.41,0-2.9,0-4.54.07a117.86,117.86,0,0,0-17.8,1.72c-1,.18-2,.38-2.86.58A8.51,8.51,0,0,1,226,61.48a7.78,7.78,0,0,1-1,1.06c-.07.16-.14.33-.22.49a8.37,8.37,0,0,1-2.63,3.19c12.52,2.77,27.58,7.52,38.67,15.52,7.18,5.19,11,10.54,11.81,16.36.95,7.15-3.06,13.15-6.66,17.57a43.25,43.25,0,0,0-6.83,11.62A20.94,20.94,0,0,1,261,146.11a23.21,23.21,0,0,1-14.13,13.44,13.45,13.45,0,0,1-10.57,11c6.34,3.34,9.75,6.85,11.11,11.26.5,1.61,1,4.08,1.48,6.15a12.61,12.61,0,0,1,9.29,6.53,5.83,5.83,0,0,0,1.4,1.63,22.87,22.87,0,0,1,4.88,5.87l.79,1.37a6.25,6.25,0,0,1,.21,5.93,49.56,49.56,0,0,1,2.81,5.4l.16.36a31.82,31.82,0,0,1,1.78,6.39,7.94,7.94,0,0,1,0,2.75,25.54,25.54,0,0,1-3.73,8.74,8.51,8.51,0,0,1-3.19,2.92c-.45.87-.94,1.75-1.46,2.64a8.54,8.54,0,0,1-4.81,3.8c-2.35.72-4.7,1.3-6.9,1.82A16.89,16.89,0,0,1,242,249c0,9.25-2.59,28-5.49,35.73-3.14,8.36-9.06,10.38-13.47,10.61h-.27c-14.69-.08-31.13-4-31.82-4.2l-2.89-.7-.68-2.89a28.82,28.82,0,0,1,4.13-21.68,19.18,19.18,0,0,1,1.17-1.59,31.77,31.77,0,0,1-6.08-2.06L186,262l-.48-.43a53.76,53.76,0,0,1-7.37-8.8,91.15,91.15,0,0,1-13.91,1.15c-2.2,3.49-5.06,8.52-6.78,11.59a11.65,11.65,0,0,1,1.24,4.95,12,12,0,0,1-2.21,7.26c-1,12.68-10.42,21.09-10.84,21.46l-1,.86-1.28.25A40.58,40.58,0,0,1,135.65,300.92Zm-6.48-54.27a25.12,25.12,0,0,1,5.1,3.83l.87-1.42-1.2-.35-.22-.1C132.43,248.08,130.83,247.39,129.17,246.65Zm-5-2.09,1,.33-.76-.35Zm93.14-7.64a11.15,11.15,0,0,1,4.16,1.57c.93-.07,1.85-.11,2.76-.11s1.71,0,2.52.1c-.12-.75-.25-1.5-.37-2.25a33.94,33.94,0,0,0-3.32-3l-.46-.39C220.94,234.29,219.14,235.65,217.33,236.92Zm-124.72-42A12.24,12.24,0,0,1,96.13,198a42.18,42.18,0,0,1,9.25-5.06,19.51,19.51,0,0,0-.95-3.22l-5.31-.83A12.58,12.58,0,0,1,92.61,194.87Z" style="fill: #fff;fill-rule: evenodd"/>
    <path d="M265.39,222.24a3.12,3.12,0,0,1,0,1.14,20.78,20.78,0,0,1-3,7,3.63,3.63,0,0,1-2.56,1.63c-.68,1.41-1.42,2.78-2.19,4.09a3.68,3.68,0,0,1-2.07,1.62c-2.17.67-4.45,1.23-6.66,1.75a3.48,3.48,0,0,1-1.36.06,11.59,11.59,0,0,1-7.46,5l-.78.17-.77-.2a14.76,14.76,0,0,1-5.25-2.36,3.66,3.66,0,0,1-1.36-2.31q-.46-2.85-.94-5.72c-2.7-3.33-5.81-5.06-8.39-7.85-7.76,8.33-22.71,15.12-22.71,15.12.42.77,1.54,2.59,1.54,2.59a64.27,64.27,0,0,0,7.77,1.35c1.91-4.11,8-5,10.88-1.79,11.32-1.52,17,3.44,17,3.44.54,7.35-2.25,28.51-5.11,36.1-1.51,4-4.21,7.23-9.2,7.49-14.29-.08-30.7-4.07-30.7-4.07-2.12-9,2.61-22.64,12.7-24.19a2.89,2.89,0,0,1-.37-1.13c-10.46-.63-15.65-3.23-15.65-3.23-4.06-3.63-8.31-10.5-8.31-10.5a87.13,87.13,0,0,1-18.79,1.6c-3.33,4.8-9.92,16.8-9.92,16.8a6.92,6.92,0,0,1,0,10c-.1,11.68-9.27,19.68-9.27,19.68-8.45,1.65-19.28-.72-19.28-.72A69.17,69.17,0,0,1,106.45,278c-6.54-9.15-8.44-18.89,1-25.82,8.47-6.21,19.47-4.41,26.2,5a2.89,2.89,0,0,1,2.77-.78c1.3-2.44,3.79-6.44,6.27-10.3-4.08-1-7.15-1.95-7.15-1.95-2.93-1.21-7.42-3.25-10.37-4.6l-.37.08a7.66,7.66,0,0,1-8.83-6.26c0-.33-.08-.66-.1-1l-5.17-3.68c-3.06,11.85-8.14,13.49-13.54,9-5.16-4.28-9.6-11.63-9.14-18.54a18.47,18.47,0,0,1,1.3-5.63l-.84-.6a7.48,7.48,0,0,1-1,.24,7.65,7.65,0,1,1,6.26-8.83,6.68,6.68,0,0,1,.11,1l.58.43a36.05,36.05,0,0,1,16-9.47c.4-5.45-2.72-11-2.72-11l-10.88-1.7c1.1-2.18,5-9.15,7.65-13.86a31.37,31.37,0,0,0-9.57.84,9,9,0,0,1-.66,5.73,15.6,15.6,0,0,1-2,2.81,13.05,13.05,0,0,1,2.19,2.74,5.32,5.32,0,0,1,.48,4.5c-.92,2.57-4,4.42-6.62,4.74a17.86,17.86,0,0,1-6.65-.72l-4.29-1.21-.11.06A6.71,6.71,0,0,1,73,192c-3,.62-7.91,1.76-10.15-.86a26,26,0,0,1-2.89-4.84,7.38,7.38,0,0,1-5.38-3.5c-2.32-4.13-4-10-.55-14.16.19-.24.39-.47.59-.7a29.53,29.53,0,0,1,4.1-4.41l.93-.85a64.92,64.92,0,0,1,6.22-5c1.63-1.22,3.29-2.38,4.92-3.48,4-2.87,8.64-3.75,13.09-1.23a15.54,15.54,0,0,1,4,3.32,29.55,29.55,0,0,0,3.44-.94,21.94,21.94,0,0,1-1.79-13l1.11-.41c.81-6.52,6-11.23,6-11.23a17.27,17.27,0,0,1,15.46-4.46c.63-2.3,1.34-4.67,2.11-7.13-6.95-5-4.34-15.32,2.48-17.33a5.51,5.51,0,0,1,4.68-5.79c.84-2.31,4.11-10.62,6.78-14.71,9.93-15.23,50.72-15.88,67.3-14.13q.95-2.37,2-4.7A89.63,89.63,0,0,1,203,51.52a3.61,3.61,0,0,1,1.6-1.42l1.42-.65h0a3.63,3.63,0,0,1,1.72-3.76,3.63,3.63,0,0,1,2.51-3.44l.91-.31,0-2.46,1.73-1C225.12,31.25,241.12,26.77,255,24a3.63,3.63,0,0,1,3.12.85c3.17,2.79,7.4,20.84,4.95,25-.38,1.37-1.76,1.85-3.3,1.78-3.22-.16-6.52-.14-9.74,0a123.68,123.68,0,0,0-18.52,1.79c-1.79.33-3.57.71-5.33,1.16a3.63,3.63,0,0,1-3.32,2.87,5.15,5.15,0,0,1-.23.54,3.63,3.63,0,0,1-1.85,1.65,3.44,3.44,0,0,1-.35,1.39A3.6,3.6,0,0,1,217.29,63c-1,2.18-2,4.41-2.86,6.6,9.38,1.7,29.86,6.17,43.56,16.06,14.25,10.3,10.85,18.82,4.23,27a44.15,44.15,0,0,0-8.44,15.44c8.55,10.9,1.55,25.42-11.61,27.72a9.87,9.87,0,0,1-2.16,7.3c-2.79,3.25-8.07,3.18-8.07,3.18-.95,2.52-2.33,6.48-2.33,6.48,9.88,4.26,12.25,7.66,13.13,10.5s2.07,9.32,2.07,9.32l.78.1c3.55-.26,6.49.91,8.32,4.19a10.55,10.55,0,0,0,2.53,3,18,18,0,0,1,3.78,4.56l.8,1.38a1.48,1.48,0,0,1-.21,1.76l-1.12,1.14a3.7,3.7,0,0,1-.28.28,43.14,43.14,0,0,1,4.42,7.78,1.34,1.34,0,0,1,.06.12A26.72,26.72,0,0,1,265.39,222.24Z" style="fill: #1c293d;fill-rule: evenodd"/>
    <path d="M225.33,191.79a104.68,104.68,0,0,0-.87,18.55s1.58-2.67.66-8.23c0,0,.71-1.89,4.85-3.56-.75-3.31-1.49-6.22-4.64-6.76" style="fill: #fff;fill-rule: evenodd"/>
    <path d="M231,201.54a17.29,17.29,0,0,0-2.91,1.67.09.09,0,0,0,0,.09,13.73,13.73,0,0,1,.84,3.79,18.13,18.13,0,0,1-1.24,4.81s5.05,3.58,14.23,2a30,30,0,0,0,15.19-7.76,15.52,15.52,0,0,0-3-3.59,14.06,14.06,0,0,1-3.38-4c-.63-1.14-1.78-2.77-5.49-2.3l0,0a.07.07,0,0,0,0,.06l.32,2.49a9.26,9.26,0,0,0,1-.57.06.06,0,0,1,.08,0,.07.07,0,0,1,0,.07c-.4,4.59-13.77,7.55-16.59,4.85a.08.08,0,0,1,0-.08.06.06,0,0,1,.06,0c.23,0,.7-.06,1.42-.17a.05.05,0,0,0,.06,0,.06.06,0,0,0,0-.06,10,10,0,0,1-.45-1.23.08.08,0,0,0,0,0H231" style="fill: #fff;fill-rule: evenodd"/>
    <path d="M231,201.54a17.29,17.29,0,0,0-2.91,1.67.09.09,0,0,0,0,.09,13.73,13.73,0,0,1,.84,3.79,18.13,18.13,0,0,1-1.24,4.81s5.05,3.58,14.23,2a30,30,0,0,0,15.19-7.76c-9.09,6.17-16,6-18.89,5.86a1.45,1.45,0,0,1-1.36-1.23,49.13,49.13,0,0,1-.51-6.74c-2.75.35-5.25.13-6.29-.87a.08.08,0,0,1,0-.08.06.06,0,0,1,.06,0c.23,0,.7-.06,1.42-.17a.05.05,0,0,0,.06,0,.06.06,0,0,0,0-.06,10,10,0,0,1-.45-1.23.08.08,0,0,0,0,0H231" style="fill: #cfcfd3;fill-rule: evenodd"/>
    <path d="M256.29,210.75a42,42,0,0,1,4.27,7.43h0a25.57,25.57,0,0,1,1.3,4.62v0a15.86,15.86,0,0,1-2.52,5.56.07.07,0,0,1-.08,0,.09.09,0,0,1-.06-.07,25.82,25.82,0,0,0-.08-3.71s0-.07-.07-.07a.08.08,0,0,0-.07.05,55.64,55.64,0,0,1-4.46,9.6s0,0,0,0c-.27.09-2.6.79-6.43,1.69a.08.08,0,0,1-.07,0,.07.07,0,0,1,0-.07c.13-.62.77-3.67,1.13-6.55a.06.06,0,0,0,0-.08.08.08,0,0,0-.09,0c-.69,1.28-3.13,5.83-4.43,8.21-1.51,2.78-5.18,3.53-5.18,3.53a12.54,12.54,0,0,1-3.91-1.72.08.08,0,0,1,0,0c-.08-.45-1-6.25-1.37-8.2s-2.71-6.67-5.4-8.6a.07.07,0,0,0-.09,0,.07.07,0,0,0,0,.09,44.1,44.1,0,0,1,2.29,5.91.09.09,0,0,1,0,.09.08.08,0,0,1-.09,0c-.66-.66-2.78-2.75-4.17-3.91-1.62-1.36-1.91-3.61,1.59-9.17a20.9,20.9,0,0,0,2.45.88,26.94,26.94,0,0,0,11.85.51A31.84,31.84,0,0,0,254.57,212c.55-.36,1.14-.77,1.72-1.21" style="fill: #fff;fill-rule: evenodd"/>
    <path d="M243.61,238.72a9.26,9.26,0,0,1-4.26,2.29,12.54,12.54,0,0,1-3.91-1.72.08.08,0,0,1,0,0c-.08-.45-1-6.25-1.37-8.2s-2.71-6.67-5.4-8.6a.07.07,0,0,0-.09,0,.07.07,0,0,0,0,.09,44.1,44.1,0,0,1,2.29,5.91.09.09,0,0,1,0,.09.08.08,0,0,1-.09,0c-.66-.66-2.78-2.75-4.17-3.91-1.62-1.36-1.91-3.61,1.59-9.17a31.83,31.83,0,0,0,9.73,3.31s1.31,11.59,1.52,18.62c.08,2.79,2.75,2.75,4.24,1.34" style="fill: #cfcfd3;fill-rule: evenodd"/>
    <path d="M131.22,160.74s-3.9-7.63-2.1-15.53a8.07,8.07,0,0,1,1.9-1.59A18.45,18.45,0,0,1,138.81,132a19.45,19.45,0,0,1,16.37-2.8c9.38,2.68,12.95,10.95,13.33,13.19a10,10,0,0,1,1.92,1.34s2.38,7.66-3.19,16a8.15,8.15,0,0,1,2.44,2.73c-13-4.53-29.76-3-42.31,2.32a16.84,16.84,0,0,1,3.85-4.11M249.13,117s-1.93,4-3.13,7.15a28.46,28.46,0,0,0-6.67-.41c20.61,6.37,13.4,32.8-9.75,27.09a40.41,40.41,0,0,0,7.23,4.29,5.73,5.73,0,0,1-1.87,6c-3.07,2.87-8.23,2-12.19-2.32a13.32,13.32,0,0,0,2.57,5.64s-1.35,2.9-2.23,5.24c0,0-8-3.21-14.76-5.19-1.06-2.06-2.52-3.38-4.24-3.54-4-.37-7.72,5.46-8.43,13s1.91,14,5.85,14.37a5.29,5.29,0,0,0,4.34-2.11c3.71.74,9.83,2,12.34,2.55a86.19,86.19,0,0,0-.54,29.63c-8.33,10.72-23.2,17.43-33.49,20.6-23.41,7.18-47.82-.62-53.65-3.8a7.55,7.55,0,0,0,.57-4.43,7.63,7.63,0,0,0-8.82-6.26h-.06a42.41,42.41,0,0,0,8.57-5.93c22.76-2.9,46.42-23.13,47.55-48.24,0,0,5.86-6.49,7.45-14.16C166,178.61,132.42,186.3,104,180.4l4.71-8.09c1,3.61,2,6.88,2,6.88.66-18.73,1.78-41.71,9.2-58.68a10.87,10.87,0,0,0,7.54-4.34s-6.64,3-10.63-.47-1.93-8.48,2-10.54a6.26,6.26,0,0,0,5.08,1.76c-8-3.61-2-11.87,4.14-7.82a7.38,7.38,0,0,0-2.51-2.24l1.9-4.48C143.74,121.91,224.19,126.89,249.13,117Z" style="fill: #fff;fill-rule: evenodd"/>
    <path d="M131,143.62a27.12,27.12,0,0,1,2.77-8.31s3-6.13,9.31-8.61,5.9-.33,5.9-.33l6.77.41,4.18,1.59,1.48,1a34,34,0,0,1,3.66,4.73,28.74,28.74,0,0,1,3.39,8.24c-.48-2.4-4.08-10.44-13.3-13.07a19.45,19.45,0,0,0-16.37,2.8A18.45,18.45,0,0,0,131,143.62" style="fill: #f2f2f2;fill-rule: evenodd"/>
    <path d="M123.92,106.92c-8-3.61-2-11.87,4.14-7.82-5.79-1.78-9,3.82-4.14,7.82" style="fill: #f2f2f2;fill-rule: evenodd"/>
    <path d="M126.6,116.51c-1.93.66-6.64,1.85-9.75-.81-4-3.42-1.93-8.48,2-10.54a4.87,4.87,0,0,0,1.54,1.1c-7.45,4.65-1.92,12.48,6.22,10.25" style="fill: #f2f2f2;fill-rule: evenodd"/>
    <path d="M127.37,164.85a126.18,126.18,0,0,1,42.31-2.32c-13-4.53-29.76-3-42.31,2.32" style="fill: #f2f2f2;fill-rule: evenodd"/>
    <path d="M178.29,163.49c-20.08,16.74-49.2,22.12-74.26,16.91l4.71-8.09c1,3.61,2,6.88,2,6.88.66-18.73,1.78-41.71,9.2-58.68a218.7,218.7,0,0,0-5.36,57.28,1.45,1.45,0,0,0,1.35,1.4c6.59.52,37.19,1.82,62.36-15.7" style="fill: #f2f2f2;fill-rule: evenodd"/>
    <path d="M249.13,117s-1.93,4-3.13,7.15a28.46,28.46,0,0,0-6.67-.41c-14.08-.29-21.59,16.13-10.17,25.18,5.07,4,15.39,1.81,19.42-2.84-3.51,4.37-10.07,6.95-19,4.75a40.41,40.41,0,0,0,7.23,4.29,43.47,43.47,0,0,1-8.42-2.91c-4.3-2.16-8.26,2.44-5.64,6.6a13.32,13.32,0,0,0,2.57,5.64s-1.35,2.9-2.23,5.24c0,0-8-3.21-14.76-5.19-.09-.18-.19-.35-.28-.51-1.31-2.7-3.19-4.39-5.27-4.39-4,0-7.17,6.14-7.17,13.7,0,.37,0,.73,0,1.09-.58,7.39,2,13.61,5.88,14a5.29,5.29,0,0,0,4.34-2.11c3.71.74,9.83,2,12.34,2.55a86.19,86.19,0,0,0-.54,29.63c-8.33,10.72-23.2,17.43-33.49,20.6-23.41,7.18-47.82-.62-53.65-3.8a7.55,7.55,0,0,0,.57-4.43,7.63,7.63,0,0,0-8.82-6.26h-.06a42.41,42.41,0,0,0,8.57-5.93c22.76-2.9,46.42-23.13,47.55-48.24,0,0,5.86-6.49,7.45-14.16a178.4,178.4,0,0,0,2.65-23.79,8,8,0,0,0-5.77-8.13,153.1,153.1,0,0,1-19.08-6.92c54,13.75,85.56-.38,85.56-.38" style="fill: #e6e6e6;fill-rule: evenodd"/>
    <path d="M136.46,158.08s10.44-5,27,0c3.27-2.85,4-7.24,3.57-11.34-7.68,4.91-23.73,5.67-33.43.85-.7,3.23,1.16,8.3,2.87,10.49" style="fill: #fff;fill-rule: evenodd"/>
    <path d="M136.46,158.08s10.44-5,27,0c3.27-2.85,4-7.24,3.57-11.34-6.09,5-16.78,4.89-16.78,4.89a16.53,16.53,0,0,1-.67,2.47,1.44,1.44,0,0,1-1.31,1,29.19,29.19,0,0,0-11.8,3" style="fill: #e6e6e6;fill-rule: evenodd"/>
    <path d="M135.72,144.82c8.32,4.24,20.83,4.06,28.84-.85-3.54-13.93-24.94-14.42-28.84.85" style="fill: #fff;fill-rule: evenodd"/>
    <path d="M135.72,144.82c8.32,4.24,20.83,4.06,28.84-.85a13.68,13.68,0,0,0-10-10c8.14,4,7.81,10.69-2,12.37a35,35,0,0,1-16.84-1.55" style="fill: #cfcfd3;fill-rule: evenodd"/>
    <path d="M144,134.78a14.39,14.39,0,0,0-3.26,2,6.48,6.48,0,0,0-.86,3.3c0,2.92,1.77,5.29,4,5.29s4-2.37,4-5.29-1.69-5.18-3.81-5.29" style="fill-rule: evenodd"/>
    <path d="M110.84,131.17a15.23,15.23,0,0,0-5.4.36c-3.6.85-8.43,4.53-10,11,0,0,4.76,3.07,13,2.22a129,129,0,0,1,2.44-13.56" style="fill: #fff;fill-rule: evenodd"/>
    <path d="M95.44,142.51s4.76,3.07,13,2.22c.19-1.47.39-2.92.62-4.34-2.6,3.94-10.7,3.3-13.58,2.12m15.4-11.34a14.49,14.49,0,0,0-4.36.14c4.08-.21,3.38,4.33,3.27,4.92Q110.25,133.71,110.84,131.17Z" style="fill: #cfcfd3;fill-rule: evenodd"/>
    <path d="M101.22,133.59a15.32,15.32,0,0,0-2.64,2.54,5.72,5.72,0,0,0-.32,1.89c0,2.46,1.5,4.46,3.34,4.46s3.34-2,3.34-4.46-1.49-4.46-3.34-4.46a2.43,2.43,0,0,0-.38,0" style="fill-rule: evenodd"/>
    <path d="M93.49,145.78A43.63,43.63,0,0,0,108,148.54c-.37,3.71-.62,7.63-.78,11.92-8,1.23-14.22-7.14-13.71-14.68" style="fill: #fff;fill-rule: evenodd"/>
    <path d="M108,148.54c-.37,3.71-.62,7.63-.78,11.92-5.92.91-10.86-3.44-12.83-8.81.41,1,1.84,3.68,6,5.53,3.48,1.56,4.94-.35,5.07-2.77.11-2.16.22-4.55.23-5.48a15.42,15.42,0,0,0,2.34-.39" style="fill: #e6e6e6;fill-rule: evenodd"/>
    <path d="M107.82,150.23l-.12,1.42c-4.31-.14-8.51-1.32-11-3.32a34.62,34.62,0,0,0,11.09,1.9" style="fill: #1c293d;fill-rule: evenodd"/>
    <path d="M73,157.26a116.48,116.48,0,0,0-11.67,9c-4.73,4.36-5.41,6.69-5.44,8.68s1.37,4.74,2,5.93,2.63,2.06,5.6,1.65a39.06,39.06,0,0,0-4.35-4.83s4,1,6,3.67a12.29,12.29,0,0,1,2.08,6.15s-1.41-2.13-2.35-3.22a13.79,13.79,0,0,1-1.49.23,28.72,28.72,0,0,0,2.38,4.08c.59.69,4.06.11,6.49-.4,4.05-.84,3.23-7.75,2.42-12.57a35.78,35.78,0,0,1,3.18,9,38.52,38.52,0,0,0,3.43-1.91c3.84-2.33,1.89-10.06,1.76-13.75,0,0,2,5.69,3.41,10.12a14.65,14.65,0,0,0,4.51-4.64c1.49-2.76-1.81-10.37-3.91-13.2s-6.64-9.39-14.06-4" style="fill: #fff;fill-rule: evenodd"/>
    <path d="M83,169s2,5.69,3.41,10.12a14.65,14.65,0,0,0,4.51-4.64c1-1.8-.09-5.64-1.52-8.89,1.08,3,1.51,7.08.74,8.16a7.48,7.48,0,0,1-1.92,1.61,1.4,1.4,0,0,1-1.14.19,1.37,1.37,0,0,1-.92-.7C84.49,171.93,83,169,83,169" style="fill: #cfcfd3;fill-rule: evenodd"/>
    <path d="M74.63,175.65a35.78,35.78,0,0,1,3.18,9,38.52,38.52,0,0,0,3.43-1.91c2.41-1.46,2.54-5,2.28-8.4.09,1.34,0,5-1.14,5.81A19.33,19.33,0,0,1,80,181.53a1.46,1.46,0,0,1-1.92-.59c-1.32-2.35-3.41-5.29-3.41-5.29" style="fill: #cfcfd3;fill-rule: evenodd"/>
    <path d="M86.86,182a3.5,3.5,0,0,0,2.12-.71,9.73,9.73,0,0,1,2.17,2.48c1,1.77-1.64,3.27-3.12,3.5a13,13,0,0,1-5.35-.58s2.79-2.08,3.32-2.5a3.12,3.12,0,0,0,.86-2.19" style="fill: #cfcfd3;fill-rule: evenodd"/>
    <path d="M56,176.28a18.07,18.07,0,0,0,1.89,4.61c.66,1.19,2.63,2.06,5.6,1.65a39.06,39.06,0,0,0-4.35-4.83s4,1,6,3.67a12.29,12.29,0,0,1,2.08,6.15s-1.41-2.13-2.35-3.22a13.79,13.79,0,0,1-1.49.23,28.72,28.72,0,0,0,2.38,4.08c.59.69,4.06.11,6.49-.4,1.58-.33,2.42-1.58,2.81-3.28a2.07,2.07,0,0,1-1.44,1,27,27,0,0,1-3.36.44,1.44,1.44,0,0,1-1.42-.82,30.61,30.61,0,0,0-7.13-9.83c-1.68-1.45-6.28-3.68-5.68.58" style="fill: #cfcfd3;fill-rule: evenodd"/>
    <path d="M112.59,185.67l5.79,7.5,2.51-7.31s-5.26-.19-8.3-.19" style="fill: #fff;fill-rule: evenodd"/>
    <path d="M118.38,193.17l2.51-7.31s-5.26-.19-8.3-.19c0,0,2.63.68,5,1.09a1.44,1.44,0,0,1,1.2,1.55Z" style="fill: #cfcfd3;fill-rule: evenodd"/>
    <polygon points="124.52 186.05 130.98 194.18 133.74 185.86 124.52 186.05" style="fill: #fff;fill-rule: evenodd"/>
    <path d="M131,194.17l2.76-8.31-9.22.19s2.45.62,5.43,1a1.45,1.45,0,0,1,1.25,1.5Z" style="fill: #cfcfd3;fill-rule: evenodd"/>
    <polygon points="137.61 185.54 143.61 192.57 143.46 184.75 137.61 185.54" style="fill: #fff;fill-rule: evenodd"/>
    <path d="M143.61,192.57l-.15-7.82-5.85.79,3.74.62a1.44,1.44,0,0,1,1.2,1.15Z" style="fill: #cfcfd3;fill-rule: evenodd"/>
    <path d="M147.72,183.83l6.34,6.13-.93-7.62s-3.41,1-5.41,1.49" style="fill: #fff;fill-rule: evenodd"/>
    <path d="M154.06,190l-.93-7.62s-3.41,1-5.41,1.49l3.27-.15a1.44,1.44,0,0,1,1.47,1Z" style="fill: #cfcfd3;fill-rule: evenodd"/>
    <path d="M157.13,181l4.69,5.53-.31-7.43a25.31,25.31,0,0,1-4.38,1.9" style="fill: #fff;fill-rule: evenodd"/>
    <path d="M161.82,186.56l-.31-7.43a25.31,25.31,0,0,1-4.38,1.9l2.1-.26a1.46,1.46,0,0,1,1.62,1.15Z" style="fill: #cfcfd3;fill-rule: evenodd"/>
    <path d="M166.13,177l5.84,4.21-2.48-6.53s-1.81,1.32-3.36,2.32" style="fill: #fff;fill-rule: evenodd"/>
    <path d="M172,181.21l-2.48-6.53s-1.81,1.32-3.36,2.32l1.75-.58a1.44,1.44,0,0,1,1.72.66Z" style="fill: #cfcfd3;fill-rule: evenodd"/>
    <path d="M169.81,186l-4.3-4.1.63,10.1a36.88,36.88,0,0,0,3.67-6" style="fill: #fff;fill-rule: evenodd"/>
    <path d="M169.81,186l-4.3-4.1,2.38,4.07a1.41,1.41,0,0,1,.13,1.2c-.88,2.65-1.88,4.83-1.88,4.83a36.88,36.88,0,0,0,3.67-6" style="fill: #cfcfd3;fill-rule: evenodd"/>
    <path d="M109.52,211.25c10.12-4.75,23.8-3.22,34.33-9.88-11.72,4.55-24.17,2.59-34.33,9.88m53.81-15.78a61.18,61.18,0,0,1-27.43,18.15c4.82-4.05,8.17-7,14.69-8.08-13-3-20.7,14.85-38.78,18.13a86.4,86.4,0,0,1,7.1-5.54c-14.77,2.27-11,13.73-16.54,16.29-2.91,1.35-11.28-7.77-8.59-17.74l4.1,2.91a1.83,1.83,0,0,0,.53,1.75c1.1.78,3.49-.7,5.34-3.3s2.45-5.35,1.35-6.13a1.8,1.8,0,0,0-1.82.07l-4.66-3.3a30,30,0,0,1,6-4.54s5.23-3.29,13.89-3.38A114.39,114.39,0,0,0,138,198.91c3.46-.68,12.22-4.57,15.13-5.36S159.93,192.45,163.33,195.47Z" style="fill: #f2f2f2;fill-rule: evenodd"/>
    <path d="M109.71,222.34c-4.11,4.3-3.49,10.31-7.34,12.08-1.38.64-4-1.09-6.08-4.15,1.57,1.82,3.48,2.25,5,1.73,3-1.06,5.12-6.89,8.45-9.66Z" style="fill: #e6e6e6;fill-rule: evenodd"/>
    <path d="M163.33,195.47a61.18,61.18,0,0,1-27.43,18.15c4.82-4.05,8.17-7,14.69-8.08-13-3-20.7,14.85-38.78,18.13a86.4,86.4,0,0,1,7.1-5.54c6.32-1.46,27-14.5,7.29-11,6.11-1.05,12.29-2.32,17.65-5.71-6.84,2.66-13.92,3.1-20.66,4.45h0c10.74-3,7.42-5.09,1.31-5.29A106.81,106.81,0,0,0,138,198.91c3.46-.68,12.22-4.57,15.13-5.36s6.78-1.1,10.18,1.92" style="fill: #e6e6e6;fill-rule: evenodd"/>
    <path d="M118.93,226a7.68,7.68,0,0,0-2.7,3.87l-3.1-2.2a36.41,36.41,0,0,0,5.8-1.67" style="fill: #687475;fill-rule: evenodd"/>
    <path d="M93.59,207.86l8.55,6.07a13,13,0,0,0-1.6,1.83,12.41,12.41,0,0,0-1.2,2.12l-8.55-6.07a7.71,7.71,0,0,0,2.8-3.95" style="fill: #7f8b8c;fill-rule: evenodd"/>
    <path d="M93.59,207.86l5,3.51S97,210.65,95.63,210a1.46,1.46,0,0,0-1.78.44l-.29.36a1.46,1.46,0,0,0,.14,2l5.64,5-8.55-6.07a7.71,7.71,0,0,0,2.8-3.95" style="fill: #687475;fill-rule: evenodd"/>
    <path d="M85.42,200.62a5.08,5.08,0,1,1-4.16,5.86,5.08,5.08,0,0,1,4.16-5.86" style="fill: #7f8b8c;fill-rule: evenodd"/>
    <path d="M122.69,227.07a5.09,5.09,0,1,1-4.16,5.87,5.09,5.09,0,0,1,4.16-5.87" style="fill: #687475;fill-rule: evenodd"/>
    <path d="M207.16,91.67a10.6,10.6,0,0,1,2.4.87c2,1.12,3.13,2.41,3,3.7-.28,3-7.08,4.73-15.19,4s-14.46-3.78-14.18-6.73c.14-1.52,2-2.73,4.93-3.44.64-2.56,1.36-5.1,2.09-7.61q.74-2.49,1.53-5c-11.69-.63-22.27.13-30.38,2-9.11,2.06-15,5.39-15.33,9.48h0c-.38,4.09,4.73,8.44,13.3,12.17,9,3.9,21.6,7,35.78,8.31h0c14.17,1.33,27.16.66,36.7-1.51,9.11-2.06,15-5.38,15.33-9.47s-4.72-8.45-13.3-12.18a104.93,104.93,0,0,0-23.21-6.63c-1.08,3.16-2.06,6.36-2.88,9.58-.21.82-.41,1.65-.6,2.48m5.06-16.48C239.34,79.8,259,89.71,258.07,99.28c-1,11.11-29.39,17.54-63.32,14.35s-60.58-14.78-59.53-25.89c1-10.53,26.5-16.85,58-14.77-.24.69-.48,1.38-.71,2.07-12.18-.71-23.25.07-31.72,2-10.2,2.31-16.76,6.38-17.25,11.66l0,.17h0c-.36,5.21,5.31,10.36,14.79,14.48,9.2,4,22.1,7.16,36.53,8.51h0c14.43,1.36,27.69.66,37.47-1.56,10.2-2.31,16.76-6.38,17.25-11.66l0-.16h0c.35-5.22-5.31-10.37-14.8-14.49-4-1.74-18.11-5.92-23.37-6.71C211.71,76.58,212,75.88,212.22,75.19Z" style="fill: #fff;fill-rule: evenodd"/>
    <path d="M165.28,108.33c-18.59-5.2-30.77-13-30.06-20.59.75-8,15.8-13.62,36.9-14.89-37.57,3.58-51.29,19.42-6.84,35.48" style="fill: #f2f2f2;fill-rule: evenodd"/>
    <path d="M212.22,75.19C239.34,79.8,259,89.71,258.07,99.28c-1,11.11-29.39,17.54-63.32,14.35A158.17,158.17,0,0,1,158,106.06c.54.15,12.17,3.33,30.63,5.09,2,.28,4.11.51,6.22.71h0c4.1.39,8.1.6,12,.67h0c45.93,2.56,63.68-20.57,16.42-32.36a114.3,114.3,0,0,0-11.81-2.9c.25-.69.5-1.39.76-2.08" style="fill: #e6e6e6;fill-rule: evenodd"/>
    <path d="M157.88,100.43c15.18,5.23,37.83,6,53.89,4,21-2.57,30.38-13.64-2-22.09.29-.93.6-1.85.91-2.76a104.93,104.93,0,0,1,23.21,6.63c8.58,3.73,13.69,8.08,13.3,12.18s-6.22,7.41-15.33,9.47c-9.54,2.17-22.53,2.84-36.7,1.51h0c-14.18-1.33-26.81-4.41-35.78-8.31l-1.46-.66" style="fill: #e6e6e6;fill-rule: evenodd"/>
    <path d="M255.78,27.56a41.17,41.17,0,0,0,1.35,12.7,104.4,104.4,0,0,0-21.82,5.61,121.27,121.27,0,0,1,22.5-3.29c.12.35.24.71.37,1.07-18.1,1.12-29.64,5.07-29.64,5.07,12.13-2.73,25.63-2.7,30.63-2.57.26.58.54,1.16.83,1.74a.11.11,0,0,1,0,.08.09.09,0,0,1-.07,0c-1.72-.08-20.82-.86-36,3.39a.08.08,0,0,1-.07,0,57.23,57.23,0,0,0-5.12-3.79.09.09,0,0,0-.1,0,.08.08,0,0,0,0,.1c.81.9,2.93,3.26,4.26,4.86a.07.07,0,0,1,0,.06l-.24,1.12a.09.09,0,0,1-.08.06l-3.14-.26s-2.24-1.73-3.5-2.67a.06.06,0,0,0-.09,0,.08.08,0,0,0,0,.1l2.6,3.14a0,0,0,0,1,0,0l1,2a.06.06,0,0,1,0,.07.1.1,0,0,1-.05,0l-3.08.38s-2-1.47-3.42-2.5a.08.08,0,0,0-.1,0,.09.09,0,0,0,0,.1l4.37,5.09a.08.08,0,0,1,0,.08.06.06,0,0,1-.07,0l-2.06,0S205.85,78.05,202.84,95a.1.1,0,0,1,0,0h-.06c-.55-.18-4-1.2-11.75-1.29l-.06,0a.08.08,0,0,1,0-.07c.36-1.6,5.78-25,15.1-40.33l0,0L210,51.57s0,0,0-.08l-.48-2.67a.07.07,0,0,1,.05-.09l2.05-.72a.06.06,0,0,0,0-.08l-.36-2.23s0-.06.05-.07l3.28-1.09a.06.06,0,0,0,0-.06l0-2.95c11.7-6.9,27.71-11.38,41-14a.07.07,0,0,1,.06,0,.09.09,0,0,1,0,.06" style="fill: #fff;fill-rule: evenodd"/>
    <path d="M255.78,27.56a41.17,41.17,0,0,0,1.35,12.7,104.4,104.4,0,0,0-21.82,5.61,121.27,121.27,0,0,1,22.5-3.29c.12.35.24.71.37,1.07-18.1,1.12-29.64,5.07-29.64,5.07,12.13-2.73,25.63-2.7,30.63-2.57.26.58.54,1.16.83,1.74a.11.11,0,0,1,0,.08.09.09,0,0,1-.07,0c-1.72-.08-20.82-.86-36,3.39a.08.08,0,0,1-.07,0,57.23,57.23,0,0,0-5.12-3.79.09.09,0,0,0-.1,0,.08.08,0,0,0,0,.1c.81.9,2.93,3.26,4.26,4.86a.07.07,0,0,1,0,.06l-.24,1.12a.09.09,0,0,1-.08.06l-3.14-.26s-2.24-1.73-3.5-2.67a.06.06,0,0,0-.09,0,.08.08,0,0,0,0,.1l2.6,3.14a0,0,0,0,1,0,0l1,2a.06.06,0,0,1,0,.07.1.1,0,0,1-.05,0l-3.08.38s-2-1.47-3.42-2.5a.08.08,0,0,0-.1,0,.09.09,0,0,0,0,.1l4.37,5.09a.08.08,0,0,1,0,.08.06.06,0,0,1-.07,0l-2.06,0S205.85,78.05,202.84,95a.1.1,0,0,1,0,0h-.06a26.11,26.11,0,0,0-5.22-.93,228.13,228.13,0,0,1,14-35.07,1.44,1.44,0,0,0-.27-1.63A26.23,26.23,0,0,0,206,53.37l0,0L210,51.57s0,0,0-.08l-.48-2.67a.07.07,0,0,1,.05-.09l2.05-.72a.06.06,0,0,0,0-.08l-.36-2.23s0-.06.05-.07l3.28-1.09a.06.06,0,0,0,0-.06l0-2.95a20,20,0,0,0,7.08,5.36c10.81-3.45,27.6-7.22,32.09-8.21A1.45,1.45,0,0,0,255,37.27a75.84,75.84,0,0,1,.75-9.71" style="fill: #cfcfd3;fill-rule: evenodd"/>
    <path d="M223.56,249.84s-1.12,9.56-7.27,15.22c5.92-2.72,8.6-8.34,7.27-15.22m-15.67,10.7a12.67,12.67,0,0,0,4.37-6.58,46.55,46.55,0,0,0,1.24-7.47c.93-1.19,4.24-1.66,5.48.12.24.39,1.15,4.7-.33,10.15a17,17,0,0,0,2.82-8.52c3-1.06,8.13-1,11.38,1.44a144.22,144.22,0,0,1-4.36,29.76,11.06,11.06,0,0,1-2.51,4.61c-1.8,1.78-5.65,2.95-30.1-1.19-.11-7.37,1.55-14.45,9.6-17,4.94.18,10.24-1.1,11.71-6.57a10.16,10.16,0,0,1-7.95,3.56A2.33,2.33,0,0,1,207.89,260.54Z" style="fill: #cfcfd3;fill-rule: evenodd"/>
    <path d="M133.22,265s5.24,7.42,12.12,11.75A16.66,16.66,0,0,1,133.22,265m15.31,3.15a5.09,5.09,0,0,1,.21,5.88,25.49,25.49,0,0,1-6.83-3.14,23.13,23.13,0,0,0,6.06,5.51c-.14,5.21-3,9.79-6.13,13.77,0,0-10-5.86-16.23-14.19s-9-18.5-16-19.21c4.48-5,11.48-4.38,17-1.28,6.38,3.59,7.52,9.29,13.26,13.23,0,0-2.4-4.94-3-6.93C140.65,257.83,146.15,265.55,148.53,268.14Z" style="fill: #fff;fill-rule: evenodd"/>
    <path d="M148.53,268.14a5.09,5.09,0,0,1,.21,5.88,25.49,25.49,0,0,1-6.83-3.14,23.13,23.13,0,0,0,6.06,5.51c-.14,5.21-3,9.79-6.13,13.77,0,0-10-5.86-16.23-14.19a90.66,90.66,0,0,1-5.62-9s5.18,7.9,9.92,12,10.78-4.16,10.78-4.16a16.72,16.72,0,0,0,4.65,1.92s-7.78-6.38-10.72-13.22a23.1,23.1,0,0,0,5.21,5.19s-1.58-3.26-2.51-5.55c2-2.8,5-1.33,7.14.47,1.65,1.6,3.11,3.47,4.07,4.51" style="fill: #cfcfd3;fill-rule: evenodd"/>
    <path d="M137.12,291.64a51,51,0,0,1-11.9-.37,80.17,80.17,0,0,1-15.88-16.49c-7.19-10.53-1.81-20.37,4.49-11.29a56.94,56.94,0,0,1,3.13,5.34c5.56,10.19,11.37,15,20.16,22.81" style="fill: #fff;fill-rule: evenodd"/>
    <path d="M137.12,291.64a51,51,0,0,1-11.9-.37,82.6,82.6,0,0,1-14-13.88c.08.08,5.58,6.05,9.44,8.6,2.69,1.79,8,1.26,11,.77,1.7,1.54,3.51,3.14,5.47,4.88" style="fill: #cfcfd3;fill-rule: evenodd"/>
    <path d="M188.92,122.17a151.59,151.59,0,0,0,39.61-.07c-12.57,4.47-30.22,4.52-39.61.07" style="fill: #1c293d;fill-rule: evenodd"/>
    <path d="M194.82,126.37s9.34,1.12,26-.41c-9.11,3.57-20,2.86-26,.41" style="fill: #1c293d;fill-rule: evenodd"/>
    <path d="M246.86,137.58c.07,5.39-4.27,10.21-10.05,11.57,13.17.5,17.13-14.56,6.77-21a17.13,17.13,0,0,1,3.28,9.43" style="fill: #1c293d;fill-rule: evenodd"/>
    <path d="M244,135.41c1.17,8-6.68,10.79-6.68,10.79,6.47.6,10.48-6.6,6.68-10.79" style="fill: #1c293d;fill-rule: evenodd"/>
    <path d="M137.84,150.46c5.8,4.46,19.1,5.19,25.42-.71-6.6,3.09-17.58,3.57-25.42.71" style="fill: #1c293d;fill-rule: evenodd"/>
    <path d="M169.61,168.72c-16.79,6.62-27.55,8.53-41.62,10.6a82.84,82.84,0,0,0,41.62-10.6" style="fill: #1c293d;fill-rule: evenodd"/>
    <path d="M127.29,149s.62,7.33,3.11,12.39l-1.32,1.69-.34-.07s-2.83-7.45-1.45-14" style="fill: #1c293d;fill-rule: evenodd"/>
    <path d="M165.09,134.07c-5.42-13.82-27.39-12.79-31.3,1.24a19.41,19.41,0,0,1,31.3-1.24" style="fill: #1c293d;fill-rule: evenodd"/>
    <path d="M215.33,190.42s-1.34,10.44-.49,29.19c-2.49-11.19-3.07-18.64.49-29.19" style="fill: #1c293d;fill-rule: evenodd"/>
    <path d="M212.19,193.73s-1,7.61-.36,21.27c-2.18-7.83-2.36-14.05.36-21.27" style="fill: #1c293d;fill-rule: evenodd"/>
    <path d="M209.62,193.21a120.82,120.82,0,0,0-.32,18.86c-1.93-6.94-2.1-12.46.32-18.86" style="fill: #1c293d;fill-rule: evenodd"/>
    <path d="M171.81,150.06s-.23,6-3.94,10.25l.21,1.15.95.07s3.9-4.18,2.78-11.47" style="fill: #1c293d;fill-rule: evenodd"/>
    <path d="M245.63,95.66c-2.38,13.86-51.91,12.26-60.61,11.2,12.55,2.45,31.43,3,45.4-.13,9.11-2.06,14.94-5.39,15.33-9.47.05-.54,0-2.15-.12-1.6" style="fill: #1c293d;fill-rule: evenodd"/>
    <path d="M208.69,82.28s8.3.29,27.2,6.46c-1-.51-2-1-3.15-1.48a105.34,105.34,0,0,0-23.51-6.69l-.54,1.71" style="fill: #1c293d;fill-rule: evenodd"/>
    <path d="M194.93,176.36c-1.87,10.1,3.61,20.79,10.26,11.11a5.29,5.29,0,0,1-4.33,2.11c-3.74-.35-6.29-6.16-5.93-13.22" style="fill: #1c293d;fill-rule: evenodd"/>
    <path d="M194.82,129.18s7.31,1.46,20.51.55c-7.35,3.23-15.85,2.12-20.51-.55" style="fill: #1c293d;fill-rule: evenodd"/>
    <path d="M134.3,221s27.76-4.84,42.76-29.41c-6.82,19.95-22.8,28.49-42.76,29.41" style="fill: #1c293d;fill-rule: evenodd"/>
    <path d="M147.26,222.19a106.55,106.55,0,0,0,23.53-13.7c-5,8-15.34,13-23.53,13.7" style="fill: #1c293d;fill-rule: evenodd"/>
    <path d="M190.49,77.41c-7.88-.09-39.23,2.14-41.7,11.24-1.87,6.88,14.89,14.54,26.41,17.54a95,95,0,0,1-15.86-5.1C150.77,97.36,145.66,93,146,88.92h0c.38-4.09,6.22-7.42,15.33-9.48,7.81-1.77,17.93-2.54,29.12-2" style="fill: #f2f2f2;fill-rule: evenodd"/>
    <path d="M99.79,209.5l-1.17-.82a30,30,0,0,1,6-4.54s5.23-3.29,13.89-3.38l1.19,0c-.36,0-12.25.42-19.91,8.77m.5,24.65c-3.56-1.8-8.7-9.34-6.51-17.47l1.07.76A19.44,19.44,0,0,0,100.29,234.15Z" style="fill: #ccc;fill-rule: evenodd"/>
    <path d="M89.49,203.33a5.09,5.09,0,0,1-7.24,5.42,5.09,5.09,0,1,0,6.25-7.69,5,5,0,0,1,1,2.27" style="fill: #687475;fill-rule: evenodd"/>
    <path d="M81.47,207.3a5.08,5.08,0,0,1,9.82-2.46v-.06a5.08,5.08,0,1,0-10,1.7,3.65,3.65,0,0,0,.21.82" style="fill: #bcc2c6;fill-rule: evenodd"/>
    <path d="M123.81,235.7a5.08,5.08,0,0,1-5.2-2.39,5.09,5.09,0,0,0,10-2.07,4.76,4.76,0,0,0-.13-.57,5.28,5.28,0,0,0-.53-1.21c0,.12.06.24.08.37a5.26,5.26,0,0,1,.07.67,5.1,5.1,0,0,1-4.24,5.2" style="fill: #7f8b8c;fill-rule: evenodd"/>
  </g>
</svg>
