<svg id="Layer_1" data-name="Layer 1" xmlns="http://www.w3.org/2000/svg" viewBox="0 0 320 320">
  <g>
    <path d="M256.22,68.39H205.74a2.38,2.38,0,0,0-2.13,1.32l-24.32,49.22a31.81,31.81,0,0,0-3.85-1.16c-25.09-4-39.19.43-47.07,6.14l28.34,113.53,80-116.4c-9.67,3.22-26.83,5.8-52.79-.86L206,74.86a2.38,2.38,0,0,1,2.13-1.33h48.09a2.38,2.38,0,0,0,2.38-2.37v-.39A2.38,2.38,0,0,0,256.22,68.39ZM199.3,135.21a5.69,5.69,0,1,1-5.68,5.7A5.69,5.69,0,0,1,199.3,135.21Zm-8.8,15.6a3.68,3.68,0,1,1-3.68,3.67A3.68,3.68,0,0,1,190.5,150.81Z" style="fill: #fff;opacity: 0.6"/>
    <g>
      <path d="M120.91,98A71.36,71.36,0,0,0,58.54,54.86a67.11,67.11,0,0,1,0-26.34A66.66,66.66,0,0,1,120.91,98Z" style="fill: #fff"/>
      <ellipse cx="74.25" cy="86.53" rx="22.82" ry="50.22" transform="translate(-35.81 116.32) rotate(-64.51)" style="fill: #fff"/>
    </g>
    <path d="M252.65,106l-98,142.54-34-136.08a66.67,66.67,0,0,1-37,4.24l44.27,174.76h36.44L291.09,106Z" style="fill: #fff"/>
  </g>
</svg>
