<svg id="Layer_1" data-name="Layer 1" xmlns="http://www.w3.org/2000/svg" viewBox="0 0 320 320">
  <g>
    <path d="M124.49,136.79c1.15,6.16,2.3,12.32,3.46,18.43s2.33,12.19,3.51,18.24l-12.48.71c-.22-2.22-.44-4.44-.66-6.68-1.47.07-2.95.16-4.4.25l-.66,6.83-12.65,1q1.55-9.8,3.1-19.5t3.09-19.26l17.69,0ZM118,160.88c-.29-2.11-.61-4.48-.91-7.1s-.64-5.5-1-8.63q-.91,5.43-1.47,9.41c-.37,2.66-.66,4.83-.81,6.52,1.38-.08,2.75-.15,4.15-.2Z" style="fill: #fff;fill-rule: evenodd"/>
    <path d="M176.14,136.77h12.3a36,36,0,0,1,7.69.61,9.45,9.45,0,0,1,4,1.79A5.8,5.8,0,0,1,202,142a20,20,0,0,1,.49,5.15v3.23a10.79,10.79,0,0,1-.93,5.14,5.68,5.68,0,0,1-3.39,2.39,20.81,20.81,0,0,1-6.48.66l-3.29-.07v14.7q-6.12-.22-12.23-.37V136.77ZM188.37,143v9.29l.91,0a3.17,3.17,0,0,0,2.3-.61,3.79,3.79,0,0,0,.67-2.66v-3a3,3,0,0,0-.76-2.44,5.82,5.82,0,0,0-3.12-.59Z" style="fill: #fff;fill-rule: evenodd"/>
    <path d="M250.92,161.39a81.71,81.71,0,0,1-.32,8.89,8.23,8.23,0,0,1-2.08,4.54,9.2,9.2,0,0,1-4.74,2.68,19.65,19.65,0,0,1-6.95.25,22.65,22.65,0,0,1-6.76-1.77,12.92,12.92,0,0,1-4.81-3.55,9.33,9.33,0,0,1-2.19-4.62,68.42,68.42,0,0,1-.34-8.36v-6.61a70.36,70.36,0,0,1,.32-8.23,8.36,8.36,0,0,1,2.08-4.4,11.3,11.3,0,0,1,4.74-3.08,22.1,22.1,0,0,1,13.71,0,11,11,0,0,1,4.84,3.28,9.54,9.54,0,0,1,2.16,4.8,80.08,80.08,0,0,1,.34,9.05v7.15Zm-12.23-14.17a11.32,11.32,0,0,0-.34-3.59,1.48,1.48,0,0,0-1.48-.8,1.67,1.67,0,0,0-1.42.6c-.32.4-.49,1.63-.49,3.68v18.6a16.17,16.17,0,0,0,.32,4.3,1.61,1.61,0,0,0,1.52,1,1.35,1.35,0,0,0,1.57-.8,17.24,17.24,0,0,0,.32-4.46V147.22Z" style="fill: #fff;fill-rule: evenodd"/>
    <path d="M282.8,137v47L272.09,182c-1.08-3.59-2.13-7.16-3.19-10.69s-2.11-7-3.17-10.41v20l-10.21-1.59V136.9l10.21,0c1.13,3.32,2.29,6.67,3.42,10s2.28,6.84,3.44,10.31V137l10.21,0Z" style="fill: #fff;fill-rule: evenodd"/>
    <path d="M218.21,136.81v38.24c-4.1-.34-8.18-.67-12.26-.94V136.79l12.26,0Z" style="fill: #fff;fill-rule: evenodd"/>
    <path d="M171.22,136.77v36c-3.56,0-7.12-.07-10.68,0,0-4.05,0-8.1,0-12.14V148.45c-.71,4.05-1.45,8.11-2.14,12.16s-1.4,8.12-2.08,12.18q-3.77,0-7.49.09-1.16-6-2.26-11.88c-.74-4-1.5-7.94-2.24-11.91,0,4,0,8,0,12V173l-10.69.37V136.78h15.8c.44,2.18.92,4.75,1.44,7.69s1.13,6.1,1.72,9.15q.71-4.22,1.4-8.42t1.4-8.42Z" style="fill: #fff;fill-rule: evenodd"/>
    <path d="M98.45,136.83v39L86.22,177V160.16c-1.2.08-2.38.15-3.56.24v17l-12.23,1.48v-42l12.23,0v14.51l3.56-.15V136.85l12.23,0Z" style="fill: #fff;fill-rule: evenodd"/>
    <path d="M66.06,155.49l-12.24.78v-7.7a13,13,0,0,0-.39-4.18c-.26-.55-.83-.81-1.72-.79a1.87,1.87,0,0,0-1.89,1.08,15.36,15.36,0,0,0-.39,4.46V170a13.67,13.67,0,0,0,.39,4.23c.27.62.89.87,1.82.74a2,2,0,0,0,1.77-1.24,16.26,16.26,0,0,0,.41-4.69v-5.58l12.24-1.06v1.67q0,6.61-1,9.52a12.22,12.22,0,0,1-4.54,5.5,19.52,19.52,0,0,1-8.69,3.42c-3.59.58-6.54.48-8.87-.42a7.44,7.44,0,0,1-4.62-4.62c-.75-2.18-1.1-5.59-1.1-10.19V153.59a62.19,62.19,0,0,1,.34-7.63A10.8,10.8,0,0,1,39.6,141a11.53,11.53,0,0,1,4.79-3.69,17.63,17.63,0,0,1,7-1.32A18.34,18.34,0,0,1,60.33,138a9.47,9.47,0,0,1,4.62,4.7q1.11,2.81,1.11,8.77v4.05Z" style="fill: #fff;fill-rule: evenodd"/>
    <polygon points="293.96 128.74 290.1 128.74 29.9 128.74 26.04 128.74 26.04 191.26 93.03 191.26 93.03 198.97 22.19 198.97 19.03 198.97 18.33 198.97 18.33 191.26 18.33 128.74 18.33 121.03 20.47 121.03 22.19 121.03 297.81 121.03 301.67 121.03 301.67 124.89 301.67 128.74 301.67 191.26 301.67 198.97 299.42 198.97 297.81 198.97 226.97 198.97 226.97 191.26 293.96 191.26 293.96 128.74 293.96 128.74" style="fill: #fff;fill-rule: evenodd"/>
    <path d="M248.26,191.26a93.64,93.64,0,0,1-176.52,0h9.54a84.69,84.69,0,0,0,157.44,0h9.54Z" style="fill: #fff;fill-rule: evenodd"/>
    <path d="M242.56,128.74h-3.84a84.69,84.69,0,0,0-157.44,0H71.74a93.64,93.64,0,0,1,176.52,0h-5.7Z" style="fill: #fff;fill-rule: evenodd"/>
    <polygon points="131.63 84.8 136.49 91.04 143.91 88.32 139.48 94.86 144.36 101.08 136.76 98.89 132.36 105.45 132.1 97.55 124.5 95.39 131.93 92.7 131.63 84.8 131.63 84.8" style="fill: #fff;fill-rule: evenodd"/>
    <polygon points="106.69 99.2 113.39 103.4 119.43 98.31 117.5 105.98 124.22 110.15 116.33 110.69 114.43 118.36 111.49 111.03 103.6 111.59 109.67 106.53 106.69 99.2 106.69 99.2" style="fill: #fff;fill-rule: evenodd"/>
    <polygon points="213.31 99.2 206.61 103.4 200.57 98.31 202.5 105.98 195.78 110.15 203.67 110.69 205.57 118.36 208.51 111.03 216.4 111.59 210.33 106.53 213.31 99.2 213.31 99.2" style="fill: #fff;fill-rule: evenodd"/>
    <polygon points="188.37 84.8 183.51 91.04 176.09 88.32 180.52 94.86 175.64 101.08 183.24 98.89 187.64 105.45 187.9 97.55 195.5 95.39 188.07 92.7 188.37 84.8 188.37 84.8" style="fill: #fff;fill-rule: evenodd"/>
    <polygon points="160 79.8 162.43 87.32 170.33 87.31 163.93 91.94 166.38 99.45 160 94.79 153.62 99.45 156.07 91.94 149.67 87.31 157.57 87.32 160 79.8 160 79.8" style="fill: #fff;fill-rule: evenodd"/>
  </g>
</svg>
