<svg id="Layer_1" data-name="Layer 1" xmlns="http://www.w3.org/2000/svg" viewBox="0 0 320 320">
  <g>
    <path d="M248.39,95.49A142.26,142.26,0,0,0,229,80.11,135.06,135.06,0,0,0,199.2,65.2a117.31,117.31,0,0,0-77.41-.26A133.69,133.69,0,0,0,92.29,79.4,141.48,141.48,0,0,0,71.84,95.51l-2.13,2,.28,2.94C71,111,73.37,132,77.56,155.61A458.84,458.84,0,0,0,90,209c5.36,17.53,11.3,31.41,17.68,41.24l.38.58.5.48c5.6,5.39,25.76,23.4,50.26,28.77l1.29.29,1.3-.29c24.55-5.37,44.68-23.38,50.27-28.78l.5-.47.37-.59c12-18.42,22.36-51,30.06-94.26,4.22-23.67,6.59-44.93,7.63-55.5l.29-2.94ZM160.11,268c-20.51-5-38.15-20.64-42.65-24.88-5.62-8.87-11-21.52-15.89-37.61a449.45,449.45,0,0,1-12.09-52c-3.75-21.13-6-40.21-7.14-51.21A131.29,131.29,0,0,1,98.89,89.56a121.46,121.46,0,0,1,26.82-13.17,105.13,105.13,0,0,1,69.5.24,122.11,122.11,0,0,1,27.13,13.58,130.09,130.09,0,0,1,15.55,12.05c-1.15,11.11-3.42,30.37-7.2,51.58-7.34,41.19-17,72-27.91,89.23C198.29,247.31,180.67,263,160.11,268Z" style="fill: #fff"/>
    <path d="M280.24,116.77a11.53,11.53,0,0,0-2.72-2.43,23.08,23.08,0,0,0-8-3c1.23-11.06,1.74-17.87,1.75-17.94l.21-2.8-1.8-2.17c-.43-.51-10.79-12.83-29.41-25.16A158.31,158.31,0,0,0,220.54,52.1a71.8,71.8,0,0,0-120.85,0A158.91,158.91,0,0,0,80,63.22C61.4,75.55,51,87.87,50.6,88.38l-1.79,2.17.2,2.8c0,.23,1.78,23.41,6.45,53a23.55,23.55,0,0,0-12,14.45L43,162.41,36.27,236l24.35,3.2-2.14,23.37,38.83,5.94a154.34,154.34,0,0,0,14.45,11.55c10.83,7.65,27.81,17.43,47.22,20.66l1.13.18,1.14-.18c19.42-3.23,36.4-13,47.23-20.66a139,139,0,0,0,19.08-16l.38-.41.32-.46a113.24,113.24,0,0,0,6.93-11.71l29.9-23.39,2.36-25.76,10-6.62,5.78-63,.44-4.73A15.3,15.3,0,0,0,280.24,116.77ZM222.52,259.3s-27.33,28.76-62.41,34.58c-35.06-5.82-62.39-34.58-62.39-34.58C64.71,211,55.94,92.83,55.94,92.83S95.65,45.18,160.11,45.18,264.3,92.83,264.3,92.83,255.53,211,222.52,259.3Z" style="fill: #fff"/>
    <path d="M248.39,95.49A142.26,142.26,0,0,0,229,80.11,135.06,135.06,0,0,0,199.2,65.2a117.31,117.31,0,0,0-77.41-.26A133.69,133.69,0,0,0,92.29,79.4,141.48,141.48,0,0,0,71.84,95.51l-2.13,2,.28,2.94C71,111,73.37,132,77.56,155.61A458.84,458.84,0,0,0,90,209c5.36,17.53,11.3,31.41,17.68,41.24l.38.58.5.48c5.6,5.39,25.76,23.4,50.26,28.77l1.29.29,1.3-.29c24.55-5.37,44.68-23.38,50.27-28.78l.5-.47.37-.59c12-18.42,22.36-51,30.06-94.26,4.22-23.67,6.59-44.93,7.63-55.5l.29-2.94ZM160.11,268c-20.51-5-38.15-20.64-42.65-24.88-5.62-8.87-11-21.52-15.89-37.61a449.45,449.45,0,0,1-12.09-52c-3.75-21.13-6-40.21-7.14-51.21A131.29,131.29,0,0,1,98.89,89.56a121.46,121.46,0,0,1,26.82-13.17,105.13,105.13,0,0,1,69.5.24,122.11,122.11,0,0,1,27.13,13.58,130.09,130.09,0,0,1,15.55,12.05c-1.15,11.11-3.42,30.37-7.2,51.58-7.34,41.19-17,72-27.91,89.23C198.29,247.31,180.67,263,160.11,268Z"/>
    <path d="M116.13,208.5l92.71-15.61c3-11,6.07-24.36,9-40.58,3.05-17.09,5.1-32.83,6.36-44-2.67-2.17-5.81-4.54-9.37-6.9-17.35-11.49-35.74-17.31-54.68-17.31-18.25,0-36,5.43-52.87,16.13a117.12,117.12,0,0,0-11.18,8.08c1.26,11.22,3.3,27,6.36,44.05C106.87,177.15,111.67,195.31,116.13,208.5Z" style="fill: #fff"/>
    <g>
      <path d="M248.39,95.49A142.26,142.26,0,0,0,229,80.11,135.06,135.06,0,0,0,199.2,65.2a117.31,117.31,0,0,0-77.41-.26A133.69,133.69,0,0,0,92.29,79.4,141.48,141.48,0,0,0,71.84,95.51l-2.13,2,.28,2.94C71,111,73.37,132,77.56,155.61A458.84,458.84,0,0,0,90,209c5.36,17.53,11.3,31.41,17.68,41.24l.38.58.5.48c5.6,5.39,25.76,23.4,50.26,28.77l1.29.29,1.3-.29c24.55-5.37,44.68-23.38,50.27-28.78l.5-.47.37-.59c12-18.42,22.36-51,30.06-94.26,4.22-23.67,6.59-44.93,7.63-55.5l.29-2.94Zm-11.74,59.42c-7.58,42.51-17.65,74.26-29.17,92-4.64,4.47-24.1,22.12-47.37,27.22-23.24-5.1-42.78-22.82-47.35-27.21-6.07-9.36-11.77-22.71-17-39.72a455.28,455.28,0,0,1-12.26-52.67c-4.1-23.1-6.42-43.65-7.5-54.67A136.51,136.51,0,0,1,95.58,84.48a127.18,127.18,0,0,1,28.17-13.81,111.23,111.23,0,0,1,73.46.24,128.32,128.32,0,0,1,28.47,14.25,135.81,135.81,0,0,1,18.54,14.72C243.12,111,240.78,131.72,236.65,154.91Z" style="fill: #fff"/>
      <path d="M225.68,85.16a128.32,128.32,0,0,0-28.47-14.25,111.23,111.23,0,0,0-73.46-.24A127.18,127.18,0,0,0,95.58,84.48,136.51,136.51,0,0,0,76,99.89c1.08,11,3.4,31.57,7.5,54.67a455.28,455.28,0,0,0,12.26,52.67c5.21,17,10.91,30.36,17,39.72,4.57,4.39,24.11,22.11,47.35,27.21,23.27-5.1,42.73-22.75,47.37-27.22,11.52-17.77,21.59-49.52,29.17-92,4.13-23.19,6.47-43.94,7.57-55A135.81,135.81,0,0,0,225.68,85.16Zm5,68.68c-7.34,41.19-17,72-27.91,89.23-4.49,4.24-22.11,19.89-42.67,24.88-20.51-5-38.15-20.64-42.65-24.88-5.62-8.87-11-21.52-15.89-37.61a449.45,449.45,0,0,1-12.09-52c-3.75-21.13-6-40.21-7.14-51.21A131.29,131.29,0,0,1,98.89,89.56a121.46,121.46,0,0,1,26.82-13.17,105.13,105.13,0,0,1,69.5.24,122.11,122.11,0,0,1,27.13,13.58,130.09,130.09,0,0,1,15.55,12.05C236.74,113.37,234.47,132.63,230.69,153.84Z" style="fill: #fff"/>
    </g>
    <g>
      <path d="M220.83,90.87a60.38,60.38,0,0,1-9,31.74h0a60.72,60.72,0,0,1-103.53,0h0a61,61,0,0,1-4.91-9.92,60.93,60.93,0,0,1-4-21.82c0-1,0-1.93.07-2.89A60.71,60.71,0,0,1,204.76,49.72a61.69,61.69,0,0,1,6.53,8.46A60.3,60.3,0,0,1,220.76,88h0C220.81,88.94,220.83,89.9,220.83,90.87Z" style="fill: #fff"/>
      <path d="M220.83,90.87a60.38,60.38,0,0,1-9,31.74h0a60.72,60.72,0,0,1-103.53,0h0a60.27,60.27,0,0,1-7.84-20.16,60.68,60.68,0,0,0,88-17h0a60.35,60.35,0,0,0,8.95-31.74q0-1.44-.06-2.88h0a60.64,60.64,0,0,0-1-8.7A60.74,60.74,0,0,1,220.76,88h0C220.81,88.94,220.83,89.9,220.83,90.87Z" style="fill: #fff"/>
      <path d="M224.89,87.89v-.1a64.56,64.56,0,0,0-17.1-40.87,64.8,64.8,0,0,0-95.35,0A64.62,64.62,0,0,0,95.35,87.79c0,1-.08,2-.08,3.08a64.76,64.76,0,0,0,7.92,31.07l1.9,3.25a64.84,64.84,0,0,0,110.31-.42l.61-1v0a64.67,64.67,0,0,0,9-32.88C225,89.87,224.94,88.86,224.89,87.89ZM163.56,43.75A86.33,86.33,0,0,0,177.48,37c.64.2,1.29.42,1.93.65a56.9,56.9,0,0,1,22.32,14.87l.12.13V65.88a107.24,107.24,0,0,0-22.75,7.19,83.56,83.56,0,0,0-15.54-10.24Zm-45.17,8.9.12-.13a56.76,56.76,0,0,1,22.32-14.87c.64-.23,1.28-.45,1.92-.65a86.47,86.47,0,0,0,13.93,6.75V62.83a83.34,83.34,0,0,0-15.55,10.24,107.15,107.15,0,0,0-22.74-7.19Zm-8,65.24a56.44,56.44,0,0,1-6.86-27v0l0,0,13.06-18.33a99,99,0,0,1,21.6,6.76c1,4.54,3.13,13,6.75,19.58l-14.73,23.43Zm64.22,27.69a56.82,56.82,0,0,1-29,0l-10.06-18.79,14.82-23.58a105.53,105.53,0,0,0,19.47,0l14.82,23.58Zm42.1-54.71a56.56,56.56,0,0,1-6.86,27L190,122.31,175.25,98.88c3.62-6.56,5.78-15,6.75-19.58a99.21,99.21,0,0,1,21.6-6.76l13.06,18.33.05,0Z"/>
      <path d="M138.23,79.3a99,99,0,0,0-21.6-6.76L103.57,90.87l0,0v0a56.44,56.44,0,0,0,6.86,27l19.86,4.42L145,98.88C141.36,92.32,139.2,83.84,138.23,79.3ZM129.28,120l-17.52-3.9a54.58,54.58,0,0,1-6.16-24.5l11.93-16.75a97.52,97.52,0,0,1,18.91,5.94,80.1,80.1,0,0,0,6.16,18Z" style="fill: #fff"/>
      <path d="M169.85,103.21a105.53,105.53,0,0,1-19.47,0l-14.82,23.58,10.06,18.79a56.82,56.82,0,0,0,29,0l10.06-18.79Zm3.37,40.6a55.1,55.1,0,0,1-26.2,0L138,126.88l13.51-21.51c2.88.24,5.79.35,8.66.35s5.77-.11,8.65-.35l13.52,21.51Z" style="fill: #fff"/>
      <path d="M216.66,90.87,203.6,72.54A99.21,99.21,0,0,0,182,79.3c-1,4.54-3.13,13-6.75,19.58L190,122.31l19.87-4.42a56.56,56.56,0,0,0,6.86-27v0Zm-8.19,25.21L191,120,177.64,98.8a80.36,80.36,0,0,0,6.15-18,97.06,97.06,0,0,1,18.91-5.94l11.94,16.75A54.72,54.72,0,0,1,208.47,116.08Z" style="fill: #fff"/>
      <path d="M201.73,52.52a56.9,56.9,0,0,0-22.32-14.87c-.64-.23-1.29-.45-1.93-.65a86.33,86.33,0,0,1-13.92,6.75V62.83A83.56,83.56,0,0,1,179.1,73.07a107.24,107.24,0,0,1,22.75-7.19V52.65ZM199.78,64.2a107.89,107.89,0,0,0-20.36,6.48,85.72,85.72,0,0,0-13.8-9.13V45.18a91.31,91.31,0,0,0,12.1-5.93l1,.34a54.89,54.89,0,0,1,21.07,13.87Z" style="fill: #fff"/>
    </g>
    <polygon points="43.8 230 87.46 235.73 242.12 210.8 270.84 191.78 243.9 181.07 76.62 199.97 43.8 230"/>
    <path d="M276.39,130.74c.16-5.47-2-8.57-3.93-10.23s-5.4-3.42-11.14-2.78v0l-1.39.23-22.64,3.81-5.63,1-29.23,4.92-5.65,1-29.23,4.92-5.63.95-29.23,4.92-11.88,2-17.78,3-10.85,1.82-27.57,4.65-1.69.28a16.66,16.66,0,0,0-12.76,11.54l-.28,1L49.39,169,47.28,192l-.73,7.91-1.69,18.53L43.8,230l227-38.23,1.56-17,1.41-15.38.78-8.57L276.31,132l.12-1.31Z"/>
    <g>
      <path d="M61.89,162.31l28.2-4.74c.21,0,.31.08.29.25l-1.61,17.64a.38.38,0,0,1-.36.36l-5.37.91q-3.51.59-3.93-3.91l.37-4-9.07,1.53L69.34,182q13.43,1.83,18.56,2.84l-2,22.25q-.36,3.9-4.65,5.52l-24.31,4.1c-.22,0-.32-.05-.3-.26l1.61-17.6c.06-.24.18-.37.36-.4l3.37-.57q4.8-.81,5.63,1.75a2.73,2.73,0,0,1,.33,1.51l-.4,4.33L76.25,204l1-11Q59,190.43,59,190.05l2.51-27.37A.45.45,0,0,1,61.89,162.31Z" style="fill: #fff"/>
      <path d="M102,155.56l17.78-3q5.52-.93,5,4.36l-3.62,39.54q-.63,6.81-7.71,10.44a9.6,9.6,0,0,1-2.06.66l-12,2q-5,.83-7-4.66a7.45,7.45,0,0,1-.15-2.19l3.84-41.93q.26-2.76,4.08-4.78A16.72,16.72,0,0,1,102,155.56Zm3.65,8.84-2.86,31.22a5.39,5.39,0,0,1-2.38,4.18V200L113,197.85a3.79,3.79,0,0,1-1.55-3l2.93-31.87Z" style="fill: #fff"/>
      <path d="M131.66,150.56l28.16-4.74c.22,0,.32.09.3.26L157.66,173a.39.39,0,0,1-.36.37l-4.68.79q-5,.27-4.6-4l1.2-13.13-8.71,1.47-3.23,35.23L146,192.3l.66-7.21c.69-3.28,2.52-5.16,5.48-5.66l4.69-.79c.21,0,.31.1.3.28l-1.93,21a.37.37,0,0,1-.35.37l-24.14,4.06c-2.86.07-4.15-1.5-3.85-4.71l4.46-48.68A.43.43,0,0,1,131.66,150.56Z" style="fill: #fff"/>
      <path d="M166.52,144.7,194.68,140c.22,0,.32.09.3.26l-2.47,26.92a.39.39,0,0,1-.35.37l-4.69.79c-3.32.18-4.86-1.14-4.6-4l1.21-13.13-8.72,1.47-3.22,35.23,8.71-1.46.66-7.21q1-4.91,5.48-5.66l4.68-.79c.22,0,.32.1.3.29l-1.92,21a.39.39,0,0,1-.36.37l-24.13,4.06c-2.87.08-4.15-1.49-3.86-4.7l4.46-48.69A.4.4,0,0,1,166.52,144.7Z" style="fill: #fff"/>
      <path d="M201.4,138.82l28.16-4.74c.22,0,.32.09.3.26L228.25,152a.39.39,0,0,1-.36.37l-5.37.9c-2.85,0-4.15-1.48-3.88-4.39l.32-3.53-8.71,1.46-1.18,12.82,12.41-2.09c.22,0,.32.09.3.26l-.41,4.5q-.36,3.93-4.79,5.52l-8.38,1.41L207,182l8.71-1.47.31-3.36q.48-5.3,7-6.4l3.19-.53c.22,0,.31.09.3.28l-1.62,17.61a.37.37,0,0,1-.35.37l-24.14,4.06c-2.6.44-3.89-1.19-3.87-4.87L201,139.2A.48.48,0,0,1,201.4,138.82Z" style="fill: #fff"/>
      <path d="M236.26,133l22.64-3.81q6.21-1,5.66,4.88l-1.3,14.24-7.87,8.28,2.18-.36q5-.85,4.48,5.22l-1.4,15.38a7.05,7.05,0,0,1-3.86,6.14l-1,.35-5.37.9c-.22,0-.32,0-.3-.26l1.59-17.29-7.37,1.24a8.26,8.26,0,0,0-1.65,1.68l-1.46,15.87a.37.37,0,0,1-.35.37l-5.55.93q-3.88.66-3.84-4.88l4.44-48.51A.46.46,0,0,1,236.26,133Zm9,7.94L243.9,156q.28-.12,9.67-10l.6-6.58Z" style="fill: #fff"/>
      <g>
        <path d="M60.75,187.22,60.59,189c1.63.32,5.77,1,15.9,2.42l.17-1.85-1.37-.19C67.69,188.3,63.29,187.64,60.75,187.22Z" style="fill: #fff"/>
        <path d="M78.68,167.46l.24-2.58-12,2-1.3,14.21,1.37.19,1,.13,1.13-12.35Z" style="fill: #fff"/>
        <path d="M66.46,201.05a1.24,1.24,0,0,0-.16-.7l-.07-.11,0-.13c-.07-.24-.28-.87-1.94-.93l-.54,5.9,2.42-.41Z" style="fill: #fff"/>
        <path d="M82.24,204.82c-.18,2-1.32,3.36-3.59,4.25l-20.22,3.4-.23,2.59,22.63-3.81c2.27-.89,3.41-2.24,3.59-4.25l1.92-20.93L84,185.66Z" style="fill: #fff"/>
        <path d="M86.38,159.66l-1.16,12.68-4.6.78h0c.3,2.22,1.21,2.22,1.66,2.22a3.4,3.4,0,0,0,.53,0l4.6-.78,1.39-15.26Z" style="fill: #fff"/>
      </g>
      <g>
        <path d="M99,199l.55-.39a4,4,0,0,0,1.77-3.13l3-32.33,9.26-1.56.23-2.59-11.67,2-3,32.33a4,4,0,0,1-1.76,3.13l-.56.39-.25,2.72,2.42-.41Z" style="fill: #fff"/>
        <path d="M113.18,195.88a4.29,4.29,0,0,0,.64.76l.16,0Z" style="fill: #fff"/>
        <path d="M122.94,154.38a2.21,2.21,0,0,0-1.65-.5h-.07c0,.23,0,.48,0,.74l-3.63,39.54a10.28,10.28,0,0,1-1.47,4.56l.07.07-.13,0a13.16,13.16,0,0,1-5.35,4.61A8.15,8.15,0,0,1,109,204l-12,2a6.22,6.22,0,0,1-1,.09,4,4,0,0,1-1.6-.31c1.21,2.2,2.7,2.49,3.78,2.49a6.22,6.22,0,0,0,1-.09l12.05-2a8.15,8.15,0,0,0,1.68-.54c4.26-2.2,6.51-5.23,6.88-9.26l3.63-39.54A3.34,3.34,0,0,0,122.94,154.38Z" style="fill: #fff"/>
      </g>
      <g>
        <path d="M151.64,196.78l-23.25,3.91h-.13a2.6,2.6,0,0,0,.5,1.64,2.33,2.33,0,0,0,1.76.54h0L153.82,199l1.71-18.63-2.42.41Z" style="fill: #fff"/>
        <polygon points="136.99 155.1 133.48 193.33 135.9 192.92 139.16 157.28 148.42 155.72 148.66 153.13 136.99 155.1" style="fill: #fff"/>
        <path d="M156.12,147.92l-2,22-3.83.64h-.83a2.15,2.15,0,0,0,.37,1.58,3.15,3.15,0,0,0,2.2.61h.44l3.82-.64,2.25-24.56Z" style="fill: #fff"/>
      </g>
      <g>
        <polygon points="171.84 149.23 168.34 187.46 170.75 187.05 174.02 151.41 183.28 149.85 183.51 147.27 171.84 149.23" style="fill: #fff"/>
        <path d="M186.5,190.91l-23.25,3.91h-.13a2.6,2.6,0,0,0,.49,1.64,2.33,2.33,0,0,0,1.76.54h0l23.26-3.91,1.7-18.63-2.41.41Z" style="fill: #fff"/>
        <path d="M191,142.05l-2,22-3.83.64h-.82a2.15,2.15,0,0,0,.37,1.58,3.15,3.15,0,0,0,2.2.61h.43l3.83-.64,2.25-24.56Z" style="fill: #fff"/>
      </g>
      <g>
        <path d="M217.75,160c-.19,2-1.37,3.37-3.72,4.24l-9.36,1.58-1.45,15.81,2.42-.41L206.85,168l9.36-1.58c2.35-.87,3.53-2.22,3.72-4.24l.26-2.94-2.41.41Z" style="fill: #fff"/>
        <polygon points="205.28 159.17 207.69 158.76 208.91 145.54 218.16 143.98 218.4 141.39 206.72 143.36 205.28 159.17" style="fill: #fff"/>
        <path d="M225.86,136.18l-1.16,12.68-4.47.75h-.17a2.37,2.37,0,0,0,.45,1.58,2.58,2.58,0,0,0,1.9.61l4.47-.75,1.39-15.27Z" style="fill: #fff"/>
        <path d="M222.54,172.38,221.38,185,198.08,189a3.18,3.18,0,0,0,.67,1.93,1.15,1.15,0,0,0,.91.31,3.61,3.61,0,0,0,.54,0l23.36-3.94L225,172l-1.66.28C223,172.27,222.78,172.32,222.54,172.38Z" style="fill: #fff"/>
      </g>
      <g>
        <path d="M240,156.18l2.3-1.09a1,1,0,0,0,.19-.11l1.41-15.34,9.44-1.59.23-2.59-11.85,2Z" style="fill: #fff"/>
        <path d="M251.12,162.7l-9.23,1.55c-.59.1-1,.39-2.51,2.16l-.31.36-1.42,15.53-4.68.78a3.21,3.21,0,0,0,.66,1.94,1.13,1.13,0,0,0,.89.31,3.5,3.5,0,0,0,.54-.05l4.77-.81L241.25,169l.31-.36c1.52-1.77,1.92-2.06,2.51-2.16l6.81-1.15Z" style="fill: #fff"/>
        <path d="M258.72,157.53h-.26a10.16,10.16,0,0,1,0,1.54L257,174.47a5.66,5.66,0,0,1-3,4.93l-.82.27-1.31.22-.24,2.59,3.73-.63.82-.27a5.66,5.66,0,0,0,3-4.93l1.41-15.39c.14-1.59,0-2.75-.52-3.28A1.69,1.69,0,0,0,258.72,157.53Z" style="fill: #fff"/>
        <path d="M262.59,131.06a2.32,2.32,0,0,0-1.64-.61,7.54,7.54,0,0,1,0,1.26l-1.26,13.74-10.52,11.07,5.06-.85,7.64-8,1.26-13.74A4,4,0,0,0,262.59,131.06Z" style="fill: #fff"/>
      </g>
    </g>
    <polygon points="66 256.71 69.7 216.32 262.17 183.91 258.45 224.49 219.68 254.82 221.67 233.89 107.93 253.04 103.91 262.51 66 256.71"/>
    <polygon points="249.19 219.44 231.46 233.31 232.97 217.45 249.19 219.44" style="fill: #fff"/>
    <polygon points="76.47 248.52 98.14 252.24 90.39 242.49 76.47 248.52" style="fill: #fff"/>
    <polygon points="249.19 219.44 76.47 248.52 78.66 224.63 251.38 195.55 249.19 219.44" style="fill: #fff"/>
    <g>
      <polygon points="93.6 238.18 95.58 237.85 95.96 233.71 100.69 232.91 100.87 231.01 96.13 231.81 96.34 229.56 101.07 228.76 101.25 226.87 94.54 228 93.6 238.18"/>
      <path d="M112.18,225l-5.92,1-1.07,1.11-.76,8.29.9.77,5.92-1,.54-.56c.15-.15.33-.33.53-.55l.76-8.29c-.17-.16-.31-.29-.44-.39Zm-1.73,8.27-.21.22-3.55.6-.18-.15.55-6,.21-.22,3.56-.6.18.16Z"/>
      <path d="M124.68,222.93l-5.92,1L117.69,225l-.76,8.29.9.78,5.92-1,.54-.55.53-.55.76-8.3-.45-.39ZM123,231.2l-.21.22-3.56.6-.18-.16.56-6,.21-.22,3.55-.6.18.15Z"/>
      <polygon points="128.48 224.14 131.04 223.71 130.29 232 132.26 231.67 133.02 223.38 135.58 222.95 135.75 221.06 128.65 222.26 128.48 224.14"/>
      <path d="M145.94,219.35l-6.9,1.16-.94,10.18,6.91-1.17.54-.55.53-.55.3-3.27-.83-.73,1-1,.3-3.27-.44-.39Zm-1.71,8.08-.22.22-.2.22-3.56.6.21-2.26,3.55-.59.36.3Zm.38-4.15-.42.44-3.56.6.21-2.26,3.55-.6.17.16a1.81,1.81,0,0,0,.19.15Z"/>
      <path d="M152.71,218.21,148.43,229l2-.33.75-1.89,3.77-.64.42,1.69,2-.33-2.42-9.61Zm-.75,6.53,1.6-4,.91,3.59Z"/>
      <polygon points="162.65 216.53 160.68 216.87 159.75 227.04 166.07 225.98 166.24 224.09 161.89 224.83 162.65 216.53"/>
      <polygon points="172.16 214.93 170.19 215.26 169.26 225.44 175.58 224.38 175.75 222.49 171.4 223.22 172.16 214.93"/>
      <path d="M187.27,214.24l3.56-.6.42.37,1.83-1.67c-.17-.16-.31-.29-.44-.39l-.46-.39-5.91,1-1.08,1.11-.76,8.29.9.77,5.92-1,.54-.56c.15-.15.33-.33.53-.55l-1.57-1.1-.51.52-3.55.6-.18-.15.55-6Z"/>
      <polygon points="198.8 210.45 196.82 210.78 195.89 220.96 202.21 219.89 202.38 218.01 198.04 218.74 198.8 210.45"/>
      <path d="M211.51,216.29l-.21.22-3.56.6-.17-.16.74-8.1-2,.33-.85,9.23.9.78,5.92-1,.54-.55.53-.56.85-9.23-2,.33Z"/>
      <path d="M226.64,206.69q-.25-.24-.45-.39c-.12-.11-.28-.23-.45-.39l-6.91,1.17-.93,10.17,6.9-1.16.55-.56.53-.55.3-3.27-.84-.73,1-1ZM224,214l-.21.21-.21.23L220,215l.21-2.25,3.56-.6.35.31Zm.38-4.15-.42.43-3.56.6.21-2.25,3.56-.6.17.16.18.15Z"/>
    </g>
    <path d="M142.45,248.4s9.8,7,17.28,8.27c0,0,16.4-5,26-15.56Z" style="fill: #fff"/>
  </g>
</svg>
